# AST/ASF file generated using VICON BodyLanguage
# -----------------------------------------------
:version 1.10
:name VICON
:units
  mass 1.0
  length 0.45
  angle deg
:documentation
   .ast/.asf automatically generated from VICON data using
   VICON BodyBuilder and BodyLanguage model FoxedUp or BRILLIANT.MOD
:root
   order TX TY TZ RX RY RZ
   axis XYZ
   position 0 0 0  
   orientation 0 0 0 
:bonedata
  begin
     id 1 
     name lhipjoint
     direction 0.576517 -0.752066 0.319413 
     length 2.45433 
     axis 0 0 0  XYZ
  end
  begin
     id 2 
     name lfemur
     direction 0.34202 -0.939693 0  
     length 7.54459  
     axis 0 0 20  XYZ
    dof rx ry rz
    limits (-160.0 20.0)
           (-70.0 70.0)
           (-60.0 70.0)
  end
  begin
     id 3 
     name ltibia
     direction 0.34202 -0.939693 0   
     length 7.73986   
     axis 0 0 20   XYZ
    dof rx
    limits (-10.0 170.0)
  end
  begin
     id 4 
     name lfoot
     direction 0.090693 -0.249177 0.964202   
     length 2.28437   
     axis -90 7.62852e-016 20   XYZ
    dof rx rz
    limits (-45.0 90.0)
           (-70.0 20.0)
  end
  begin
     id 5 
     name ltoes
     direction 1.5356e-011 -4.21928e-011 1   
     length 1.14243   
     axis -90 7.62852e-016 20   XYZ
    dof rx
    limits (-90.0 20.0)
  end
  begin
     id 6 
     name rhipjoint
     direction -0.573937 -0.753736 0.320122   
     length 2.44889  
     axis 0 0 0  XYZ 
  end
  begin
     id 7 
     name rfemur
     direction -0.34202 -0.939693 0   
     length 7.50166   
     axis 0 0 -20   XYZ
    dof rx ry rz
    limits (-160.0 20.0)
           (-70.0 70.0)
           (-70.0 60.0)
  end
  begin
     id 8 
     name rtibia
     direction -0.34202 -0.939693 0   
     length 7.54266   
     axis 0 0 -20   XYZ
    dof rx
    limits (-10.0 170.0)
 end
 begin
     id 9 
     name rfoot
     direction -0.114017 -0.31326 0.942798   
     length 2.34212  
     axis -90 -7.62852e-016 -20   XYZ
    dof rx rz
    limits (-45.0 90.0)
           (-20.0 70.0)
  end
  begin
     id 10 
     name rtoes
     direction -1.53557e-011 -4.21867e-011 1   
     length 1.16246   
     axis -90 -7.62852e-016 -20   XYZ
    dof rx
    limits (-90.0 20.0)
  end
  begin
     id 11 
     name lowerback
     direction -0.0228371 0.999155 -0.034167   
     length 2.0537   
     axis 0 0 0   XYZ
    dof rx ry rz
    limits (-20.0 45.0)
           (-30.0 30.0)
           (-30.0 30.0)
  end
  begin
     id 12 
     name upperback
     direction 0.0198981 0.999794 0.00389455   
     length 2.05302   
     axis 0 0 0   XYZ
    dof rx ry rz
    limits (-20.0 45.0)
           (-30.0 30.0)
           (-30.0 30.0)
  end
  begin
     id 13 
     name thorax
     direction 0.0304566 0.99935 0.0192987   
     length 2.05315   
     axis 0 0 0   XYZ
    dof rx ry rz
    limits (-20.0 45.0)
           (-30.0 30.0)
           (-30.0 30.0)
  end
  begin
     id 14 
     name lowerneck
     direction -0.0196762 0.99417 0.106017   
     length 1.82056   
     axis 0 0 0   XYZ
    dof rx ry rz
    limits (-20.0 45.0)
           (-30.0 30.0)
           (-30.0 30.0)
  end
  begin
     id 15 
     name upperneck
     direction 0.00517787 0.9802 -0.197944   
     length 1.83835   
     axis 0 0 0   XYZ
    dof rx ry rz
    limits (-20.0 45.0)
           (-30.0 30.0)
           (-30.0 30.0)
  end
  begin
     id 16
     name head
     direction 0.00211419 0.996945 -0.078081  
     length 1.85629  
     axis 0 0 0   XYZ
    dof rx ry rz
    limits (-20.0 45.0)
           (-30.0 30.0)
           (-30.0 30.0)
  end
  begin
     id 17 
     name lclavicle
     direction 0.930001 0.365811 -0.0357824  
     length 3.81961  
     axis 0 0 0   XYZ
    dof ry rz
    limits (-20.0 10.0)
           (0.0 20.0)
  end
  begin
     id 18 
     name lhumerus
     direction 1 -4.48968e-011 -3.06644e-027   
     length 5.14507   
     axis 180 -30 -90   XYZ
    dof rx ry rz
    limits (-60.0 90.0)
           (-90.0 90.0)
           (-90.0 90.0)
  end
  begin
     id 19
     name lradius
     direction 1 -4.48965e-011 9.06925e-028   
     length 3.50646   
     axis 180 -30 -90   XYZ
    dof rx
    limits (-10.0 170.0)
  end
  begin
     id 20
     name lwrist
     direction 1 -4.48957e-011 1.03922e-027   
     length 1.75323   
     axis -2.56395e-016 90 90   XYZ
    dof ry
    limits (-180.0 0.0)
 end
  begin
     id 21 
     name lhand
     direction 1 -4.48967e-011 2.08017e-027   
     length 0.629969   
     axis -1.32723e-015 90 90   XYZ
    dof rx rz
    limits (-90.0 90.0)
           (-45.0 45.0)
  end
  begin
     id 22 
     name lfingers
     direction 1 -4.49089e-011 4.20095e-027   
     length 0.507897   
     axis -2.6545e-015 90 90   XYZ
    dof rx
    limits (0.0 90.0)
  end
  begin
     id 23
     name lthumb
     direction 0.707107 -6.35001e-011 0.707107   
     length 0.729241   
     axis -90 45 5.05613e-014   XYZ
    dof rx rz
    limits (-45.0 45.0)
           (-45.0 45.0)
  end
  begin
     id 24 
     name rclavicle
     direction -0.881882 0.464123 -0.0829113   
     length 3.47515  
     axis 0 0 0   XYZ 
    dof ry rz
    limits (-10.0 20.0)
           (-20.0 0.0)
  end
  begin
     id 25 
     name rhumerus
     direction -1 -4.48961e-011 -1.55672e-027  
     length 5.232   
     axis 180 30 90   XYZ
    dof rx ry rz
    limits (-90.0 60.0)
           (-90.0 90.0)
           (-90.0 90.0)
  end
  begin
     id 26 
     name rradius
     direction -1 -4.48963e-011 6.18178e-029   
     length 3.65641   
     axis 180 30 90   XYZ
    dof rx
    limits (-10.0 170.0)
  end
  begin
     id 27 
     name rwrist
     direction -1 -4.48982e-011 1.04136e-027   
     length 1.8282   
     axis -2.56395e-016 -90 -90   XYZ
    dof ry
    limits (-180.0 0.0)
  end
  begin
     id 28
     name rhand
     direction -1 -4.48929e-011 2.07378e-027   
     length 0.656807   
     axis -1.32723e-015 -90 -90   XYZ
    dof rx rz
    limits (-90.0 90.0)
           (-45.0 45.0)
  end
  begin
     id 29
     name rfingers
     direction -1 -4.489e-011 4.13816e-027   
     length 0.529535   
     axis -2.6545e-015 -90 -90   XYZ
    dof rx
    limits (0.0 90.0)
  end
  begin
     id 30
     name rthumb
     direction -0.707107 -6.34843e-011 0.707107   
     length 0.760309   
     axis -90 -45 -5.05613e-014   XYZ
    dof rx rz
    limits (-45.0 45.0)
           (-45.0 45.0)
  end
:hierarchy
  begin
    root lhipjoint rhipjoint lowerback
    lhipjoint lfemur
    lfemur ltibia
    ltibia lfoot
    lfoot ltoes
    rhipjoint rfemur
    rfemur rtibia
    rtibia rfoot
    rfoot rtoes
    lowerback upperback
    upperback thorax
    thorax lowerneck lclavicle rclavicle
    lowerneck upperneck
    upperneck head
    lclavicle lhumerus
    lhumerus lradius
    lradius lwrist
    lwrist lhand lthumb
    lhand lfingers
    rclavicle rhumerus
    rhumerus rradius
    rradius rwrist
    rwrist rhand rthumb
    rhand rfingers
  end

#!OML:ASF H:\ManfredETheater\Project 1\Capture day 1\Session 1\subject.ASF
:FULLY-SPECIFIED
:DEGREES
33
root -0.188135 16.8665 -27.2285 23.4055 -7.54934 3.03798
lowerback 13.8729 -1.02205 -6.85591
upperback -1.3316 -2.55369 -0.345176
thorax -8.97522 -0.898142 4.04489
lowerneck -19.9049 1.62991 -0.665295
upperneck 2.55685 2.23582 0.896968
head 3.87758 1.14754 0.581932
rclavicle -3.63776e-014 -2.06736e-014
rhumerus -78.135 -0.279988 -76.0828
rradius 87.836
rwrist -13.3749
rhand -29.6633 11.8957
rfingers 7.12502
rthumb -2.99226 -18.0631
lclavicle -3.63776e-014 -2.06736e-014
lhumerus -40.6852 -25.3133 105.35
lradius 140.148
lwrist 17.2714
lhand -25.336 -11.2148
lfingers 7.12502
lthumb 1.18707 18.7617
rfemur -70.589 -11.7618 18.4608
rtibia 64.4358
rfoot -9.81867 -1.97005
rtoes -42.691
lfemur -2.2327 -5.99629 -29.424
ltibia 36.0831
lfoot 12.4099 -7.88112
ltoes -10.161
34
root -0.210937 16.9007 -26.6437 23.0005 -8.01816 3.02628
lowerback 13.738 -1.0144 -6.89177
upperback -1.26467 -2.53398 -0.331139
thorax -8.82449 -0.894629 4.06938
lowerneck -20.0242 1.86483 -0.521961
upperneck 3.02211 2.5358 0.623127
head 4.04318 1.27961 0.504761
rclavicle -9.54166e-015 -3.18055e-015
rhumerus -78.2666 -0.458268 -75.6156
rradius 88.3834
rwrist -12.8588
rhand -29.4529 11.7394
rfingers 7.12502
rthumb -2.78913 -18.2222
lclavicle -9.54166e-015 -3.18055e-015
lhumerus -40.9972 -24.8861 105.099
lradius 139.809
lwrist 18.8403
lhand -25.9122 -10.3486
lfingers 7.12502
lthumb 0.630499 19.6302
rfemur -70.2586 -11.3651 18.0473
rtibia 60.9125
rfoot -8.53472 -1.40839
rtoes -43.0295
lfemur -0.373548 -6.80723 -30.0354
ltibia 35.2399
lfoot 15.3353 -7.46969
ltoes -5.92558
35
root -0.231661 16.9211 -26.0645 22.588 -8.45045 3.09081
lowerback 13.635 -1.00516 -6.96077
upperback -1.17837 -2.52018 -0.328522
thorax -8.66965 -0.893309 4.10231
lowerneck -20.1123 2.10123 -0.364292
upperneck 3.39075 2.84105 0.292213
head 4.1766 1.41004 0.407607
rclavicle 3.57812e-015 -2.5842e-014
rhumerus -78.1616 -0.648586 -75.2177
rradius 88.8889
rwrist -12.299
rhand -29.2491 11.6008
rfingers 7.12502
rthumb -2.59231 -18.3631
lclavicle 3.57812e-015 -2.5842e-014
lhumerus -41.2432 -24.1816 104.728
lradius 139.076
lwrist 20.6237
lhand -26.5832 -9.31919
lfingers 7.12502
lthumb -0.0175158 20.6605
rfemur -69.8561 -11.0339 17.5493
rtibia 57.6484
rfoot -7.15624 -0.980672
rtoes -43.3144
lfemur 1.15275 -7.63898 -30.7987
ltibia 35.0635
lfoot 16.8784 -6.9663
ltoes -2.31359
36
root -0.249997 16.9277 -25.4914 22.1646 -8.8324 3.22857
lowerback 13.5739 -0.996941 -7.05026
upperback -1.07421 -2.51418 -0.333844
thorax -8.51822 -0.895336 4.14109
lowerneck -20.1541 2.34269 -0.200329
upperneck 3.64811 3.15886 -0.104269
head 4.27124 1.54197 0.289197
rclavicle -4.6118e-014 -9.14409e-015
rhumerus -77.8287 -0.863611 -74.8908
rradius 89.3546
rwrist -11.7519
rhand -29.071 11.5033
rfingers 7.12502
rthumb -2.42023 -18.4627
lclavicle -4.6118e-014 -9.14409e-015
lhumerus -41.4401 -23.2674 104.287
lradius 137.983
lwrist 22.4627
lhand -27.3008 -8.16157
lfingers 7.12502
lthumb -0.710582 21.817
rfemur -69.3873 -10.7779 16.9766
rtibia 54.6881
rfoot -5.78717 -0.736347
rtoes -43.5553
lfemur 2.34001 -8.37647 -31.6612
ltibia 35.5442
lfoot 17.2952 -6.39927
ltoes 0.382391
37
root -0.266168 16.9211 -24.9247 21.7274 -9.15323 3.41948
lowerback 13.5618 -0.990285 -7.14124
upperback -0.95429 -2.51351 -0.33811
thorax -8.37706 -0.899884 4.18451
lowerneck -20.1428 2.59048 -0.0329382
upperneck 3.79694 3.49213 -0.576909
head 4.3275 1.67645 0.146664
rclavicle 2.26615e-014 7.95139e-016
rhumerus -77.2828 -1.10585 -74.6332
rradius 89.7804
rwrist -11.2698
rhand -28.9352 11.4313
rfingers 7.12502
rthumb -2.28917 -18.5361
lclavicle 2.26615e-014 7.95139e-016
lhumerus -41.6078 -22.204 103.825
lradius 136.565
lwrist 24.2323
lhand -28.0167 -6.91491
lfingers 7.12502
lthumb -1.40201 23.0602
rfemur -68.8612 -10.5923 16.3533
rtibia 52.097
rfoot -4.54334 -0.662097
rtoes -43.8482
lfemur 3.17081 -8.94898 -32.5524
ltibia 36.6775
lfoot 16.9444 -5.76946
ltoes 2.22776
38
root -0.280786 16.9026 -24.3634 21.2783 -9.40113 3.62048
lowerback 13.5963 -0.984345 -7.19638
upperback -0.821837 -2.51 -0.328942
thorax -8.24993 -0.904143 4.22321
lowerneck -20.0664 2.84172 0.126099
upperneck 3.84254 3.83821 -1.11423
head 4.34535 1.8133 -0.0150471
rclavicle 5.08889e-014 9.14409e-015
rhumerus -76.5463 -1.37879 -74.4428
rradius 90.161
rwrist -10.887
rhand -28.856 11.3657
rfingers 7.12502
rthumb -2.21267 -18.6026
lclavicle 5.08889e-014 9.14409e-015
lhumerus -41.7717 -21.0444 103.386
lradius 134.86
lwrist 25.8524
lhand -28.6795 -5.60562
lfingers 7.12502
lthumb -2.04213 24.3643
rfemur -68.2694 -10.4582 15.7141
rtibia 49.9055
rfoot -3.47714 -0.695685
rtoes -44.2135
lfemur 3.66998 -9.33836 -33.3884
ltibia 38.3745
lfoot 16.1877 -5.14215
ltoes 3.25504
39
root -0.294821 16.8743 -23.8059 20.8256 -9.5659 3.777
lowerback 13.6704 -0.977215 -7.17747
upperback -0.682051 -2.49336 -0.290129
thorax -8.14049 -0.90405 4.25096
lowerneck -19.9245 3.09742 0.275229
upperneck 3.80608 4.19727 -1.70812
head 4.3317 1.95378 -0.193064
rclavicle -7.15625e-015 -1.96797e-014
rhumerus -75.6408 -1.68365 -74.3137
rradius 90.4787
rwrist -10.6177
rhand -28.8286 11.2945
rfingers 7.12502
rthumb -2.1862 -18.6741
lclavicle -7.15625e-015 -1.96797e-014
lhumerus -41.9481 -19.8248 102.989
lradius 132.903
lwrist 27.2976
lhand -29.2473 -4.27445
lfingers 7.12502
lthumb -2.59057 25.6896
rfemur -67.6013 -10.3478 15.1062
rtibia 48.1275
rfoot -2.59437 -0.760853
rtoes -44.5559
lfemur 3.86423 -9.5576 -34.0853
ltibia 40.5322
lfoot 15.2377 -4.65267
ltoes 3.61993
